<svg width="26" height="26" viewBox="0 0 26 26" fill="none" xmlns="http://www.w3.org/2000/svg">
<path d="M16.4635 3.56152H9.33272C6.80342 3.56152 6.24474 4.82109 5.91969 6.36508L4.77185 11.8605H21.0244L19.8765 6.36508C19.5515 4.82109 18.9928 3.56152 16.4635 3.56152Z" stroke="#898989" stroke-width="1.52367" stroke-linecap="round" stroke-linejoin="round"/>
<path d="M23.0458 20.8196C23.1576 22.008 22.2027 23.034 20.9838 23.034H19.0741C17.9771 23.034 17.8247 22.5667 17.6317 21.9877L17.4285 21.3782C17.1441 20.5453 16.9613 19.9866 15.4986 19.9866H10.2977C8.83501 19.9866 8.6217 20.6164 8.36775 21.3782L8.1646 21.9877C7.9716 22.5667 7.81923 23.034 6.72219 23.034H4.81251C3.59358 23.034 2.63874 22.008 2.75048 20.8196L3.31931 14.6334C3.46152 13.1098 3.7561 11.8604 6.41745 11.8604H19.3788C22.0402 11.8604 22.3348 13.1098 22.477 14.6334L23.0458 20.8196Z" stroke="#898989" stroke-width="1.52367" stroke-linecap="round" stroke-linejoin="round"/>
<path d="M4.77189 8.81299H3.7561" stroke="#898989" stroke-width="1.52367" stroke-linecap="round" stroke-linejoin="round"/>
<path d="M22.0402 8.81299H21.0244" stroke="#898989" stroke-width="1.52367" stroke-linecap="round" stroke-linejoin="round"/>
<path d="M12.8981 3.73413V5.7657" stroke="#898989" stroke-width="1.52367" stroke-linecap="round" stroke-linejoin="round"/>
<path d="M11.3745 5.76562H14.4218" stroke="#898989" stroke-width="1.52367" stroke-linecap="round" stroke-linejoin="round"/>
<path d="M6.80341 15.9236H9.85075" stroke="#898989" stroke-width="1.52367" stroke-linecap="round" stroke-linejoin="round"/>
<path d="M15.9455 15.9236H18.9928" stroke="#898989" stroke-width="1.52367" stroke-linecap="round" stroke-linejoin="round"/>
</svg>
