<svg width="26" height="26" viewBox="0 0 26 26" fill="none" xmlns="http://www.w3.org/2000/svg">
<path d="M12.322 21.1364H8.61251C7.95913 21.1364 7.37952 21.1154 6.86314 21.0416C4.09155 20.736 3.34332 19.4292 3.34332 15.8672V10.598C3.34332 7.03608 4.09155 5.72932 6.86314 5.4237C7.37952 5.34993 7.95913 5.32886 8.61251 5.32886H12.2588" stroke="#898989" stroke-width="1.58076" stroke-linecap="round" stroke-linejoin="round"/>
<path d="M16.5374 5.32886H18.0971C18.7505 5.32886 19.3301 5.34993 19.8465 5.4237C22.6181 5.72932 23.3663 7.03608 23.3663 10.598V15.8672C23.3663 19.4292 22.6181 20.736 19.8465 21.0416C19.3301 21.1154 18.7505 21.1364 18.0971 21.1364H16.5374" stroke="#898989" stroke-width="1.58076" stroke-linecap="round" stroke-linejoin="round"/>
<path d="M16.5163 2.69434V23.7711" stroke="#898989" stroke-width="1.58076" stroke-linecap="round" stroke-linejoin="round"/>
<path d="M12.4005 13.2327H12.41" stroke="#898989" stroke-width="2.10768" stroke-linecap="round" stroke-linejoin="round"/>
<path d="M8.18519 13.2327H8.19466" stroke="#898989" stroke-width="2.10768" stroke-linecap="round" stroke-linejoin="round"/>
</svg>
