<svg width="26" height="26" viewBox="0 0 26 26" fill="none" xmlns="http://www.w3.org/2000/svg">
<path d="M2.78778 10.2344V7.63562C2.78778 5.04721 4.87722 2.95776 7.46564 2.95776H10.0644" stroke="#898989" stroke-width="1.55929" stroke-linecap="round" stroke-linejoin="round"/>
<path d="M16.3016 2.95776H18.9004C21.4889 2.95776 23.5783 5.04721 23.5783 7.63562V10.2344" stroke="#898989" stroke-width="1.55929" stroke-linecap="round" stroke-linejoin="round"/>
<path d="M23.5783 17.5112V19.0705C23.5783 21.6589 21.4888 23.7484 18.9004 23.7484H17.3411" stroke="#898989" stroke-width="1.55929" stroke-linecap="round" stroke-linejoin="round"/>
<path d="M10.0644 23.7481H7.46564C4.87722 23.7481 2.78778 21.6587 2.78778 19.0702V16.4714" stroke="#898989" stroke-width="1.55929" stroke-linecap="round" stroke-linejoin="round"/>
<path d="M18.3807 10.7541V15.9517C18.3807 18.0307 17.3411 19.0703 15.2621 19.0703H11.104C9.02494 19.0703 7.98541 18.0307 7.98541 15.9517V10.7541C7.98541 8.67502 9.02494 7.6355 11.104 7.6355H15.2621C17.3411 7.6355 18.3807 8.67502 18.3807 10.7541Z" stroke="#898989" stroke-width="1.55929" stroke-linecap="round" stroke-linejoin="round"/>
<path d="M20.4598 13.353H5.90643" stroke="#898989" stroke-width="1.55929" stroke-linecap="round" stroke-linejoin="round"/>
</svg>
