<svg width="30" height="30" viewBox="0 0 30 30" fill="none" xmlns="http://www.w3.org/2000/svg">
<path d="M19.3645 4.18399H10.9835C8.01079 4.18399 7.35416 5.66439 6.97212 7.47907L5.62305 13.9379H24.725L23.3759 7.47907C22.9939 5.66439 22.3372 4.18399 19.3645 4.18399Z" stroke="white" stroke-width="1.79081" stroke-linecap="round" stroke-linejoin="round"/>
<path d="M27.1008 24.4677C27.2321 25.8646 26.1099 27.0704 24.6773 27.0704H22.4328C21.1434 27.0704 20.9643 26.5212 20.7375 25.8407L20.4987 25.1244C20.1644 24.1454 19.9495 23.4888 18.2304 23.4888H12.1177C10.3986 23.4888 10.1478 24.229 9.84938 25.1244L9.61061 25.8407C9.38377 26.5212 9.20469 27.0704 7.91531 27.0704H5.67083C4.23819 27.0704 3.11595 25.8646 3.24727 24.4677L3.91584 17.1971C4.08298 15.4063 4.42921 13.9378 7.55715 13.9378H22.7909C25.9189 13.9378 26.2651 15.4063 26.4322 17.1971L27.1008 24.4677Z" stroke="white" stroke-width="1.79081" stroke-linecap="round" stroke-linejoin="round"/>
<path d="M5.62331 10.3562H4.42944" stroke="white" stroke-width="1.79081" stroke-linecap="round" stroke-linejoin="round"/>
<path d="M25.919 10.3562H24.7251" stroke="white" stroke-width="1.79081" stroke-linecap="round" stroke-linejoin="round"/>
<path d="M15.1741 4.38684V6.77458" stroke="white" stroke-width="1.79081" stroke-linecap="round" stroke-linejoin="round"/>
<path d="M13.3833 6.77457H16.9649" stroke="white" stroke-width="1.79081" stroke-linecap="round" stroke-linejoin="round"/>
<path d="M8.01074 18.7133H11.5924" stroke="white" stroke-width="1.79081" stroke-linecap="round" stroke-linejoin="round"/>
<path d="M18.7559 18.7133H22.3375" stroke="white" stroke-width="1.79081" stroke-linecap="round" stroke-linejoin="round"/>
</svg>
