<svg width="31" height="30" viewBox="0 0 31 30" fill="none" xmlns="http://www.w3.org/2000/svg">
<path d="M14.4969 24.2884H10.1371C9.36915 24.2884 8.68792 24.2636 8.08101 24.1769C4.8235 23.8177 3.94409 22.2819 3.94409 18.0954V11.9024C3.94409 7.71597 4.8235 6.18011 8.08101 5.82092C8.68792 5.73421 9.36915 5.70944 10.1371 5.70944H14.4226" stroke="white" stroke-width="1.8579" stroke-linecap="round" stroke-linejoin="round"/>
<path d="M19.4514 5.70944H21.2845C22.0525 5.70944 22.7337 5.73421 23.3406 5.82092C26.5981 6.18011 27.4775 7.71597 27.4775 11.9024V18.0954C27.4775 22.2819 26.5981 23.8177 23.3406 24.1769C22.7337 24.2636 22.0525 24.2884 21.2845 24.2884H19.4514" stroke="white" stroke-width="1.8579" stroke-linecap="round" stroke-linejoin="round"/>
<path d="M19.4268 2.61292V27.3849" stroke="white" stroke-width="1.8579" stroke-linecap="round" stroke-linejoin="round"/>
<path d="M14.5893 14.9989H14.6004" stroke="white" stroke-width="2.4772" stroke-linecap="round" stroke-linejoin="round"/>
<path d="M9.63496 14.9989H9.64608" stroke="white" stroke-width="2.4772" stroke-linecap="round" stroke-linejoin="round"/>
</svg>
