<svg width="31" height="31" viewBox="0 0 31 31" fill="none" xmlns="http://www.w3.org/2000/svg">
<path d="M3.29126 11.7669V8.71246C3.29126 5.67024 5.74703 3.21448 8.78924 3.21448H11.8437" stroke="white" stroke-width="1.83266" stroke-linecap="round" stroke-linejoin="round"/>
<path d="M19.1741 3.21448H22.2285C25.2707 3.21448 27.7265 5.67024 27.7265 8.71246V11.7669" stroke="white" stroke-width="1.83266" stroke-linecap="round" stroke-linejoin="round"/>
<path d="M27.7266 20.3195V22.1521C27.7266 25.1944 25.2709 27.6501 22.2287 27.6501H20.396" stroke="white" stroke-width="1.83266" stroke-linecap="round" stroke-linejoin="round"/>
<path d="M11.8437 27.65H8.78924C5.74703 27.65 3.29126 25.1942 3.29126 22.152V19.0976" stroke="white" stroke-width="1.83266" stroke-linecap="round" stroke-linejoin="round"/>
<path d="M21.6176 12.3778V18.4867C21.6176 20.9303 20.3959 22.152 17.9523 22.152H13.0652C10.6217 22.152 9.3999 20.9303 9.3999 18.4867V12.3778C9.3999 9.9343 10.6217 8.71252 13.0652 8.71252H17.9523C20.3959 8.71252 21.6176 9.9343 21.6176 12.3778Z" stroke="white" stroke-width="1.83266" stroke-linecap="round" stroke-linejoin="round"/>
<path d="M24.0611 15.4325H6.9563" stroke="white" stroke-width="1.83266" stroke-linecap="round" stroke-linejoin="round"/>
</svg>
